<svg id="Layer_1" data-name="Layer 1" xmlns="http://www.w3.org/2000/svg" viewBox="0 0 500 500"><defs><style>.cls-1{fill:#fff;}</style></defs><title>Untitled-1</title><path class="cls-1" d="M437.5,453a81.5,81.5,0,1,1-35.2-109.7A81.5,81.5,0,0,1,437.5,453ZM312.2,388.6a59.4,59.4,0,1,0,80-25.6A59.4,59.4,0,0,0,312.2,388.6Z"/><path class="cls-1" d="M193.9,293.9a81.5,81.5,0,1,1-35.2-109.6A81.4,81.4,0,0,1,193.9,293.9ZM68.7,229.5a59.4,59.4,0,1,0,79.9-25.6A59.4,59.4,0,0,0,68.7,229.5Z"/><path class="cls-1" d="M424.2,121.5A81.5,81.5,0,1,1,389,11.8,81.6,81.6,0,0,1,424.2,121.5ZM299,57.1a59.4,59.4,0,1,0,79.9-25.7A59.4,59.4,0,0,0,299,57.1Z"/><rect class="cls-1" x="232.8" y="261.2" width="16.7" height="154.32" transform="translate(-174.1 352.5) rotate(-56.5)"/><rect class="cls-1" x="223.2" y="86.3" width="16.7" height="164.03" transform="translate(216.1 -117.5) rotate(50.9)"/></svg>